<?xml version="1.0" encoding="UTF-8"?><svg id="a" xmlns="http://www.w3.org/2000/svg" viewBox="0 0 387.89 89.6"><defs><style>.b{fill:#231f20;}</style></defs><path class="b" d="M21.54,38.83V6.76c0-.48.29-.77.77-.77h8.88c.48,0,.77.24,1.06.72l14.74,24.05h.62l14.74-24.05c.29-.48.58-.72,1.06-.72h8.88c.48,0,.77.29.77.77v32.07c0,.48-.29.77-.77.77h-6.14c-.48,0-.72-.29-.72-.77v-22.61h-.53l-13.83,22.61c-.29.48-.62.77-1.15.77h-5.23c-.53,0-.86-.29-1.15-.77l-13.83-22.61h-.53v22.61c0,.48-.24.77-.72.77h-6.14c-.48,0-.77-.29-.77-.77Z"/><path class="b" d="M117.5,33.65v5.23c0,.48-.24.72-.72.72h-37.92c-.48,0-.77-.29-.77-.77V6.76c0-.48.29-.77.77-.77h37.68c.48,0,.72.24.72.72v5.23c0,.48-.24.72-.72.72h-30.82v6.77h30.34c.48,0,.72.24.72.72v5.28c0,.48-.24.72-.72.72h-30.34v6.77h31.06c.48,0,.72.24.72.72Z"/><path class="b" d="M163.62,6.76v5.18c0,.48-.29.72-.77.72h-16.75v26.16c0,.48-.29.77-.77.77h-5.95c-.48,0-.77-.29-.77-.77V12.67h-16.75c-.48,0-.77-.24-.77-.72v-5.18c0-.48.29-.77.77-.77h41c.48,0,.77.29.77.77Z"/><path class="b" d="M208.7,39.6h-7.15c-.58,0-.82-.34-1.15-.86l-2.88-4.46h-26.5l-2.88,4.46c-.34.53-.58.86-1.1.86h-7.2c-.48,0-.82-.38-.38-1.01l20.55-31.83c.29-.48.53-.77,1.06-.77h6.43c.53,0,.82.29,1.1.77l20.5,31.83c.43.62.1,1.01-.38,1.01ZM193.33,27.74l-8.74-13.63h-.62l-8.79,13.63h18.15Z"/><path class="b" d="M257.7,14.78v16.03c0,5.47-2.59,8.78-8.54,8.78h-35.33c-.48,0-.77-.29-.77-.77V6.76c0-.48.29-.77.77-.77h35.33c5.95,0,8.54,3.31,8.54,8.78ZM250.12,15.31c0-1.97-.86-2.64-2.64-2.64h-26.79v20.26h26.79c1.78,0,2.64-.67,2.64-2.64v-14.98Z"/><path class="b" d="M309.26,39.6h-7.15c-.58,0-.82-.34-1.15-.86l-2.88-4.46h-26.5l-2.88,4.46c-.34.53-.58.86-1.1.86h-7.2c-.48,0-.82-.38-.38-1.01l20.55-31.83c.29-.48.53-.77,1.06-.77h6.43c.53,0,.82.29,1.1.77l20.5,31.83c.43.62.1,1.01-.38,1.01ZM293.89,27.74l-8.74-13.63h-.62l-8.79,13.63h18.15Z"/><path class="b" d="M345.11,6.76v5.18c0,.48-.29.72-.77.72h-16.75v26.16c0,.48-.29.77-.77.77h-5.95c-.48,0-.77-.29-.77-.77V12.67h-16.75c-.48,0-.77-.24-.77-.72v-5.18c0-.48.29-.77.77-.77h41c.48,0,.77.29.77.77Z"/><path class="b" d="M387.3,39.6h-7.15c-.58,0-.82-.34-1.15-.86l-2.88-4.46h-26.5l-2.88,4.46c-.34.53-.58.86-1.1.86h-7.2c-.48,0-.82-.38-.38-1.01l20.55-31.83c.29-.48.53-.77,1.06-.77h6.43c.53,0,.82.29,1.1.77l20.5,31.83c.43.62.1,1.01-.38,1.01ZM371.94,27.74l-8.74-13.63h-.62l-8.79,13.63h18.15Z"/><path class="b" d="M62.01,83.6h-5.57c-.58,0-.96-.29-1.34-.82l-5.38-7.92h-20.55v7.97c0,.48-.24.77-.72.77h-6.14c-.48,0-.77-.29-.77-.77v-32.07c0-.48.29-.77.77-.77h31.59c5.95,0,8.54,3.31,8.54,8.78v7.34c0,4.13-1.49,7.01-4.85,8.16l5.33,8.06c.48.67-.1,1.25-.91,1.25ZM29.17,68.19h22.95c1.78,0,2.69-.67,2.69-2.64v-6.24c0-1.97-.91-2.64-2.69-2.64h-22.95v11.52Z"/><path class="b" d="M107.27,77.65v5.23c0,.48-.24.72-.72.72h-37.92c-.48,0-.77-.29-.77-.77v-32.07c0-.48.29-.77.77-.77h37.68c.48,0,.72.24.72.72v5.23c0,.48-.24.72-.72.72h-30.82v6.77h30.34c.48,0,.72.24.72.72v5.28c0,.48-.24.72-.72.72h-30.34v6.77h31.06c.48,0,.72.24.72.72Z"/><path class="b" d="M151,50.72v5.23c0,.48-.24.72-.72.72h-30.82v5.81h30.34c.48,0,.72.24.72.72v5.23c0,.48-.24.72-.72.72h-30.34v13.68c0,.48-.24.77-.72.77h-6.14c-.48,0-.77-.29-.77-.77v-32.07c0-.48.29-.77.77-.77h37.68c.48,0,.72.24.72.72Z"/><path class="b" d="M156.32,50h6.15c.48,0,.72.29.72.77v32.07c0,.48-.24.77-.72.77h-6.15c-.48,0-.77-.29-.77-.77v-32.07c0-.48.29-.77.77-.77Z"/><path class="b" d="M168.23,82.83v-32.07c0-.48.29-.77.77-.77h7.15c.43,0,.62.19,1.06.58l25.35,24h.67v-23.81c0-.48.24-.77.72-.77h6.14c.48,0,.77.29.77.77v32.07c0,.48-.29.77-.77.77h-7.15c-.43,0-.62-.19-1.06-.58l-25.35-24h-.67v23.81c0,.48-.24.77-.72.77h-6.14c-.48,0-.77-.29-.77-.77Z"/><path class="b" d="M255.3,77.65v5.23c0,.48-.24.72-.72.72h-37.92c-.48,0-.77-.29-.77-.77v-32.07c0-.48.29-.77.77-.77h37.68c.48,0,.72.24.72.72v5.23c0,.48-.24.72-.72.72h-30.82v6.77h30.34c.48,0,.72.24.72.72v5.28c0,.48-.24.72-.72.72h-30.34v6.77h31.06c.48,0,.72.24.72.72Z"/><path class="b" d="M300.33,83.6h-5.57c-.58,0-.96-.29-1.34-.82l-5.38-7.92h-20.55v7.97c0,.48-.24.77-.72.77h-6.14c-.48,0-.77-.29-.77-.77v-32.07c0-.48.29-.77.77-.77h31.59c5.95,0,8.54,3.31,8.54,8.78v7.34c0,4.13-1.49,7.01-4.85,8.16l5.33,8.06c.48.67-.1,1.25-.91,1.25ZM267.49,68.19h22.95c1.78,0,2.69-.67,2.69-2.64v-6.24c0-1.97-.91-2.64-2.69-2.64h-22.95v11.52Z"/><rect class="b" width="9.87" height="89.6"/></svg>